<svg width="256" height="256" viewBox="0 0 256 256" fill="none" xmlns="http://www.w3.org/2000/svg">
<g clip-path="url(#clip0_580_970)">
<path d="M128.673 135.272L128.397 135.274L107.234 72.1597L78.7545 72.3271L78.2178 162.946C83.1357 160.328 88.7124 158.092 94.7823 156.294L95.1174 99.7186L95.4356 92.4455L120.311 152.013C123.563 151.718 124.5 151.602 127.86 151.582C131.22 151.563 132.1 151.723 135.349 151.924L160.935 91.4L161.168 98.6699L160.829 155.906C166.823 157.633 172.373 159.804 177.315 162.364L177.852 71.7451L149.373 71.9124L128.617 135.272H128.673Z" fill="black"/>
<path d="M104.731 197.258C110.846 197.222 115.833 192.236 115.869 186.121C115.905 180.005 110.977 175.077 104.862 175.113C98.7474 175.149 93.7609 180.135 93.7248 186.25C93.6882 192.366 98.6162 197.294 104.731 197.258Z" fill="black"/>
<path d="M150.454 196.99C156.569 196.954 161.555 191.968 161.592 185.852C161.628 179.737 156.7 174.809 150.585 174.844C144.471 174.881 139.484 179.867 139.448 185.982C139.412 192.097 144.339 197.026 150.454 196.99Z" fill="black"/>
<path d="M128.753 0.747838C58.575 1.16012 1.16849 58.5663 0.752759 128.748C0.337026 198.93 57.0673 255.665 127.245 255.253C197.423 254.841 254.83 197.434 255.245 127.253C255.661 57.0709 198.931 0.335555 128.753 0.747838ZM127.346 238.286C66.532 238.643 17.3588 189.465 17.719 128.648C18.0793 67.8316 67.8385 18.0721 128.652 17.7148C189.466 17.3576 238.639 66.5356 238.279 127.353C237.919 188.169 188.159 237.929 127.346 238.286Z" fill="black"/>
</g>
<defs>
<clipPath id="clip0_580_970">
<rect width="256" height="256" fill="white"/>
</clipPath>
</defs>
</svg>
